<?xml version="1.0" standalone="no"?>
<!DOCTYPE svg PUBLIC "-//W3C//DTD SVG 20010904//EN"
 "http://www.w3.org/TR/2001/REC-SVG-20010904/DTD/svg10.dtd">
<svg version="1.0" xmlns="http://www.w3.org/2000/svg"
 width="512.000000pt" height="512.000000pt" viewBox="0 0 512.000000 512.000000"
 preserveAspectRatio="xMidYMid meet">
<metadata>
Created by potrace 1.14, written by Peter Selinger 2001-2017
</metadata>
<g transform="translate(0.000000,512.000000) scale(0.100000,-0.100000)"
fill="#000000" stroke="none">
<path d="M2325 5109 c2 -3 -10 -6 -28 -6 -94 -3 -116 -6 -110 -17 3 -6 0 -6
-8 2 -7 6 -18 12 -23 12 -6 0 -4 -4 4 -10 10 -6 2 -9 -27 -8 -23 0 -47 -3 -55
-8 -13 -8 -18 -9 -71 -12 -16 -1 -26 -6 -23 -10 3 -5 -1 -9 -9 -9 -8 0 -11 5
-8 11 4 6 -1 5 -10 -3 -9 -7 -17 -10 -17 -7 0 4 -8 2 -18 -3 -18 -10 -63 -21
-89 -23 -7 -1 -13 -5 -13 -10 0 -5 -4 -7 -9 -3 -5 3 -13 1 -16 -5 -5 -8 -12
-7 -23 2 -14 11 -15 10 -9 -6 7 -17 6 -17 -10 -5 -11 9 -14 10 -9 2 5 -9 0
-13 -13 -13 -12 0 -21 -6 -21 -12 0 -9 -4 -8 -10 2 -6 10 -10 11 -10 3 0 -7
-11 -13 -25 -13 -14 0 -25 -4 -25 -10 0 -5 -12 -10 -26 -10 -17 0 -23 -4 -18
-12 5 -8 2 -9 -9 -5 -9 3 -22 0 -29 -7 -8 -7 -21 -12 -31 -10 -9 1 -15 -1 -12
-6 4 -7 -27 -19 -52 -21 -5 0 -13 -10 -20 -22 -7 -12 -12 -17 -13 -11 0 6 -7
11 -15 11 -8 0 -11 -5 -8 -10 4 -6 -1 -8 -11 -4 -14 6 -17 3 -12 -9 4 -10 2
-14 -6 -11 -7 2 -25 -4 -40 -14 -20 -14 -28 -16 -31 -7 -3 8 -6 6 -6 -4 -1
-16 -12 -23 -33 -19 -5 0 -8 -6 -8 -15 0 -8 -4 -13 -9 -9 -5 3 -16 -1 -24 -9
-8 -8 -17 -12 -21 -9 -3 4 -6 1 -6 -6 0 -7 -4 -9 -10 -6 -5 3 -10 -1 -10 -10
0 -9 -4 -14 -9 -11 -5 3 -20 -5 -34 -18 -14 -13 -28 -21 -32 -18 -3 3 -12 -4
-21 -16 -8 -12 -22 -22 -30 -22 -8 0 -14 -4 -14 -10 0 -5 -7 -10 -16 -10 -10
0 -14 -6 -11 -14 4 -10 0 -12 -16 -8 -12 3 -19 2 -15 -3 8 -8 -76 -75 -95 -75
-8 0 -7 -4 3 -10 11 -7 12 -10 2 -10 -7 0 -20 -7 -29 -15 -8 -8 -19 -13 -24
-9 -5 3 -8 1 -7 -4 4 -12 -104 -117 -117 -113 -5 1 -7 0 -3 -4 4 -4 -4 -17
-18 -30 -13 -12 -24 -25 -24 -27 0 -3 -18 -25 -40 -48 -22 -23 -40 -47 -40
-52 0 -5 -4 -6 -10 -3 -5 3 -10 -1 -10 -9 0 -9 -4 -16 -10 -16 -5 0 -10 -5
-10 -10 0 -6 -9 -20 -20 -32 -11 -12 -20 -29 -20 -37 0 -14 -1 -14 -10 -1 -8
12 -10 11 -10 -6 0 -12 -7 -25 -16 -28 -8 -3 -12 -10 -9 -16 3 -5 1 -10 -4
-10 -6 0 -11 -7 -11 -15 0 -9 -7 -18 -15 -21 -8 -4 -12 -10 -9 -15 3 -5 -3 -9
-13 -9 -15 0 -16 -2 -3 -10 13 -8 12 -10 -3 -10 -10 0 -15 -4 -12 -10 3 -5 1
-10 -5 -10 -6 0 -9 -4 -5 -9 3 -6 -3 -14 -12 -20 -10 -6 -13 -11 -8 -11 6 0 4
-4 -3 -9 -7 -4 -14 -17 -15 -29 0 -11 -5 -18 -9 -16 -4 3 -8 0 -8 -6 0 -6 -4
-8 -10 -5 -5 3 -7 0 -4 -8 3 -8 1 -18 -5 -22 -6 -3 -11 -15 -11 -26 0 -10 -4
-19 -9 -19 -9 0 -35 -58 -32 -72 0 -5 -4 -8 -10 -8 -5 0 -8 -4 -5 -9 4 -5 3
-11 -1 -13 -5 -1 -16 -18 -25 -36 -10 -18 -13 -30 -8 -27 6 3 10 1 10 -4 0 -6
-7 -11 -15 -11 -9 0 -12 -6 -9 -15 4 -8 1 -15 -6 -15 -6 0 -9 -4 -6 -9 3 -4
-1 -16 -8 -27 -8 -10 -12 -24 -9 -31 3 -7 1 -13 -5 -13 -6 0 -8 -10 -5 -22 4
-19 3 -20 -6 -8 -9 12 -11 10 -11 -10 0 -14 -7 -33 -14 -43 -7 -9 -11 -28 -9
-41 3 -13 0 -27 -6 -30 -6 -4 -11 -16 -11 -27 0 -14 -4 -18 -13 -13 -8 5 -8 2
2 -9 9 -11 10 -17 2 -17 -6 0 -11 -10 -11 -23 0 -13 -3 -27 -7 -31 -4 -3 -8
-19 -9 -34 -4 -37 -8 -54 -18 -71 -6 -10 -5 -12 2 -7 7 4 12 2 12 -3 0 -6 -4
-11 -8 -11 -7 0 -13 -34 -15 -92 -1 -9 -5 -14 -9 -12 -4 3 -8 -31 -8 -75 0
-47 -4 -81 -10 -81 -5 0 -10 -5 -10 -11 0 -5 6 -7 13 -3 9 6 9 5 1 -7 -14 -17
-16 -399 -3 -399 5 0 9 -5 9 -11 0 -5 -4 -8 -9 -4 -10 6 -7 -27 3 -44 4 -5 7
-35 7 -68 1 -32 6 -64 13 -72 9 -12 8 -13 -4 -6 -13 8 -13 7 0 -10 8 -10 14
-20 13 -22 -2 -1 -3 -18 -3 -35 0 -25 3 -29 10 -18 5 8 10 10 10 4 0 -6 -3
-14 -7 -18 -11 -10 -12 -37 -2 -30 5 3 9 -6 9 -20 0 -14 5 -28 10 -31 8 -5 7
-12 -2 -23 -9 -10 -9 -13 -1 -9 7 5 12 1 12 -10 1 -39 5 -53 13 -53 5 0 8 -8
7 -17 -1 -10 -1 -27 0 -38 1 -17 3 -18 11 -5 8 11 9 9 5 -11 -4 -17 -1 -32 9
-42 9 -8 16 -27 16 -41 0 -14 5 -28 11 -31 6 -4 8 -13 5 -20 -3 -8 2 -19 10
-26 9 -8 14 -23 11 -36 -3 -18 -1 -23 10 -19 8 3 11 1 8 -4 -4 -6 1 -24 9 -41
9 -17 13 -35 10 -40 -3 -5 1 -9 9 -9 8 0 14 -6 14 -12 -1 -18 49 -125 62 -133
6 -3 11 -14 11 -25 0 -10 7 -21 16 -24 9 -4 14 -13 10 -21 -3 -10 1 -15 12
-16 11 0 12 -2 4 -6 -9 -3 -5 -12 13 -31 19 -19 23 -27 13 -34 -10 -6 -9 -8 4
-8 10 0 24 -15 34 -35 9 -19 21 -35 26 -35 5 0 7 -4 4 -9 -3 -5 1 -11 9 -15 8
-3 15 -15 15 -26 0 -12 4 -19 9 -16 8 5 36 -42 33 -56 -1 -4 6 -4 15 -1 11 4
14 3 9 -5 -4 -7 -3 -12 1 -12 5 0 13 -10 18 -23 6 -12 17 -21 24 -19 7 1 10
-2 7 -7 -4 -5 5 -21 19 -35 14 -14 25 -30 25 -36 0 -6 4 -8 10 -5 6 3 10 -4
11 -17 0 -13 3 -17 6 -10 3 9 10 7 24 -9 10 -12 16 -27 12 -33 -3 -6 -3 -8 1
-5 10 9 56 -34 56 -52 0 -12 2 -12 9 0 7 11 10 9 16 -8 3 -11 11 -21 16 -21 6
0 7 -5 3 -12 -4 -7 -3 -8 5 -4 6 4 14 0 17 -8 3 -9 13 -16 21 -16 8 0 11 -4 8
-10 -3 -5 1 -10 10 -10 9 0 13 -5 10 -10 -3 -6 1 -10 9 -10 9 0 16 -4 16 -10
0 -5 7 -10 16 -10 8 0 12 -5 9 -10 -3 -6 1 -10 10 -10 9 0 13 -4 10 -10 -3 -5
3 -10 15 -10 12 0 18 -5 15 -10 -3 -6 1 -10 9 -10 9 0 16 -4 16 -10 0 -5 8
-10 17 -10 9 0 14 -3 10 -6 -7 -7 58 -54 74 -54 6 0 7 -5 4 -10 -3 -6 3 -10
13 -10 20 0 46 -23 37 -32 -3 -2 2 -5 10 -6 8 -1 22 -3 30 -4 8 -1 12 -5 9
-10 -3 -4 2 -8 11 -8 9 0 13 -4 10 -10 -5 -9 2 -11 30 -10 3 0 15 -9 27 -20
12 -11 28 -20 35 -20 7 0 13 -4 13 -10 0 -5 6 -9 13 -7 6 1 11 -3 10 -10 -2
-7 6 -10 17 -8 11 2 20 -1 20 -6 0 -6 5 -7 10 -4 6 3 10 2 10 -4 0 -6 18 -16
40 -22 21 -7 37 -16 34 -20 -4 -8 26 -14 49 -10 4 0 7 -4 7 -10 0 -6 7 -8 16
-5 8 3 13 2 10 -2 -3 -4 4 -14 16 -21 12 -7 17 -8 13 -1 -3 6 10 1 30 -10 20
-11 33 -15 29 -8 -4 7 2 4 14 -6 12 -11 22 -16 22 -13 0 3 12 0 26 -8 14 -7
36 -12 50 -10 13 1 21 -2 18 -6 -5 -9 5 -12 38 -12 10 0 15 -4 12 -8 -3 -5 12
-9 33 -9 24 0 33 -3 25 -8 -8 -6 -3 -9 15 -10 36 -1 55 -5 71 -16 8 -5 32 -8
53 -8 22 1 37 -3 35 -7 -3 -4 1 -8 9 -8 8 0 15 5 15 11 0 6 4 5 9 -3 5 -7 20
-13 35 -13 16 0 23 -5 19 -12 -4 -6 0 -5 9 2 12 9 18 10 23 2 4 -6 14 -10 23
-9 42 4 113 -2 108 -9 -2 -4 4 -8 14 -8 10 0 17 3 15 6 -2 4 2 7 10 7 8 0 12
-4 9 -9 -3 -4 0 -8 5 -8 6 0 11 6 11 13 0 8 4 7 10 -3 8 -13 13 -13 31 -2 12
8 18 9 14 2 -9 -15 324 -11 344 4 11 8 13 8 8 0 -3 -6 0 -11 8 -11 8 0 12 4 9
9 -8 13 10 10 25 -4 11 -11 13 -11 7 0 -5 9 7 12 46 13 29 1 59 1 67 0 7 -2
11 2 7 7 -3 5 1 9 9 9 8 0 15 -5 15 -11 0 -6 4 -5 9 2 4 7 27 13 51 14 28 0
38 3 29 9 -9 6 5 9 39 9 28 0 52 4 52 9 0 4 8 8 18 8 41 0 53 4 46 14 -4 7 1
7 16 -1 15 -8 20 -8 16 -1 -5 7 6 11 31 11 30 0 35 3 23 11 -12 9 -11 10 7 6
13 -3 26 -1 29 4 3 5 10 7 15 4 5 -4 9 -1 9 4 0 6 5 11 11 11 5 0 7 -6 3 -12
-4 -7 2 -5 13 5 11 9 23 14 26 10 4 -3 7 -1 7 6 0 7 4 10 9 7 12 -8 42 4 36
14 -2 4 10 7 28 7 21 -1 31 4 29 12 -1 7 2 10 8 6 6 -4 17 -1 25 5 8 6 20 8
26 4 8 -4 9 -3 5 4 -5 8 0 12 13 12 11 0 23 5 26 11 4 6 14 8 22 5 11 -5 13
-2 9 10 -4 12 -2 15 9 10 8 -3 15 0 15 7 0 8 4 6 10 -3 8 -13 10 -12 10 3 0
15 17 22 43 18 4 0 7 3 7 8 0 5 10 13 22 17 12 3 28 13 36 20 7 8 18 12 23 9
5 -4 9 2 10 12 0 10 3 13 6 6 3 -9 13 -5 31 12 14 13 29 22 33 20 4 -3 9 2 13
10 3 8 15 15 27 15 15 0 19 4 15 16 -3 8 -2 13 3 10 12 -8 63 19 54 27 -3 4 0
7 8 7 8 0 29 13 46 29 18 16 34 26 37 23 3 -2 8 3 12 12 3 9 10 14 14 11 4 -3
11 2 14 11 3 8 10 12 16 9 5 -3 10 1 10 9 0 9 7 16 16 16 8 0 12 5 9 10 -3 5
1 10 9 10 9 0 16 5 16 10 0 6 7 10 16 10 8 0 12 5 9 10 -3 6 4 10 17 10 17 0
19 3 9 9 -10 6 -5 12 17 22 21 9 27 16 19 21 -9 6 -8 8 2 8 7 0 33 20 56 44
23 25 45 42 49 39 3 -4 6 4 6 16 0 12 4 19 10 16 6 -3 10 1 10 10 0 9 5 13 10
10 6 -3 10 0 10 7 0 8 9 20 20 28 11 8 20 20 20 28 0 7 5 10 10 7 6 -3 10 1
10 10 0 9 5 13 10 10 6 -3 10 0 10 8 0 7 9 23 20 35 11 12 20 26 20 32 0 6 5
8 10 5 6 -3 10 3 10 15 0 12 4 19 9 16 5 -4 15 7 22 23 7 16 17 27 21 25 4 -3
8 2 8 10 0 9 5 16 11 16 5 0 8 4 4 9 -3 6 0 13 7 18 19 12 40 52 33 64 -4 5
-1 8 5 7 7 -2 20 12 30 29 9 18 24 40 31 50 12 15 12 16 -1 8 -10 -5 -9 -1 3
13 11 11 16 25 12 31 -4 7 0 8 11 4 14 -5 16 -2 11 16 -3 15 0 24 9 28 8 3 13
12 10 19 -3 8 0 13 7 11 7 -1 11 6 11 16 -1 9 2 17 7 17 5 0 8 6 6 13 -1 6 3
11 9 10 6 -1 11 4 11 12 0 8 -5 11 -11 8 -6 -4 -2 3 8 15 11 12 15 22 10 22
-5 0 -2 5 6 10 8 5 15 17 16 27 1 20 10 48 25 75 5 10 9 25 9 33 0 9 4 14 8
11 5 -3 9 0 10 7 3 42 10 69 20 79 6 6 8 17 5 26 -4 10 -2 13 5 8 8 -5 12 3
13 26 1 18 1 36 0 41 0 4 4 7 10 7 5 0 8 4 4 9 -3 5 -1 12 3 15 5 3 8 19 7 35
-1 17 2 28 7 25 5 -3 9 0 7 7 -5 37 2 90 11 84 6 -4 10 8 10 27 0 19 6 40 13
47 10 11 10 13 -1 7 -7 -4 -12 -1 -12 8 0 8 5 16 10 18 6 2 11 38 12 81 1 45
5 72 10 65 5 -9 7 -5 5 9 -2 12 -6 25 -10 29 -3 4 -3 14 2 23 11 22 12 360 1
381 -5 10 -6 20 -3 24 4 4 8 17 10 29 2 17 1 19 -7 7 -7 -11 -10 0 -11 40 -1
30 -1 61 0 69 2 7 -2 10 -7 7 -11 -7 -10 13 1 31 4 6 3 14 -3 18 -5 3 -10 22
-10 41 0 21 -4 33 -10 29 -14 -9 -12 8 3 24 7 9 7 11 1 8 -8 -5 -14 6 -18 31
-14 95 -19 112 -29 105 -6 -4 -8 0 -4 10 4 10 1 17 -6 17 -9 0 -8 3 1 9 11 7
11 10 0 22 -7 8 -13 21 -12 29 0 8 -6 26 -14 39 -11 19 -11 22 -1 16 9 -5 8
-1 -2 11 -9 10 -15 27 -14 37 2 9 -1 17 -6 17 -5 0 -8 3 -7 8 1 4 -3 17 -10
30 -7 12 -10 27 -7 32 3 6 1 10 -5 10 -6 0 -9 4 -6 9 3 5 -1 12 -10 15 -13 5
-14 9 -4 21 10 12 10 15 -3 15 -9 0 -17 13 -21 34 -4 19 -17 47 -29 62 -12 16
-21 31 -21 34 1 3 -7 22 -17 42 -10 21 -19 43 -19 50 0 8 -9 21 -20 31 -11 9
-20 24 -20 32 0 8 -4 15 -10 15 -5 0 -10 6 -10 14 0 7 -7 19 -15 26 -8 7 -12
16 -9 21 3 5 -2 9 -10 9 -10 0 -13 6 -9 18 3 9 2 14 -2 9 -5 -4 -17 11 -28 34
-12 27 -23 39 -33 35 -8 -3 -14 -1 -14 4 0 6 6 10 12 10 7 0 2 7 -10 16 -12 8
-22 21 -22 27 0 7 -9 19 -20 27 -11 8 -20 20 -20 28 0 7 -4 10 -10 7 -5 -3
-10 1 -10 10 0 10 -13 30 -30 45 -16 15 -30 34 -30 41 0 7 -3 9 -6 6 -9 -9
-45 33 -38 45 3 4 1 7 -4 6 -5 -2 -21 9 -35 24 -14 15 -28 24 -32 20 -4 -4 -6
-2 -5 3 4 18 0 35 -7 34 -21 -3 -33 3 -33 17 0 8 -4 12 -10 9 -5 -3 -10 1 -10
10 0 8 -8 19 -17 22 -10 4 -30 19 -45 35 -14 15 -31 28 -38 28 -6 0 -8 5 -5
10 3 6 1 10 -5 10 -6 0 -25 14 -42 30 -16 17 -36 30 -44 30 -9 0 -12 5 -9 10
3 6 -1 10 -9 10 -9 0 -16 5 -16 10 0 6 -6 10 -14 10 -8 0 -22 10 -30 22 -9 12
-16 18 -16 13 0 -6 -7 -1 -15 9 -8 11 -15 16 -15 11 0 -5 -7 0 -16 11 -8 10
-13 12 -9 4 4 -9 -2 -6 -12 5 -10 11 -25 21 -33 23 -8 2 -16 8 -18 13 -2 5
-10 9 -18 9 -8 0 -14 5 -14 10 0 6 -7 10 -15 10 -8 0 -24 10 -36 23 -12 12
-19 17 -16 11 4 -7 -10 -3 -31 8 -20 10 -36 23 -35 28 2 5 -4 7 -12 4 -8 -4
-15 -1 -15 6 0 6 -4 9 -9 5 -5 -3 -12 -1 -16 5 -4 6 -11 8 -16 5 -5 -4 -9 -1
-9 5 0 6 -4 8 -10 5 -5 -3 -10 -1 -10 6 0 6 -8 9 -20 6 -11 -3 -18 -1 -15 4 3
4 -7 11 -22 15 -15 4 -37 14 -47 23 -11 9 -16 11 -13 4 5 -8 1 -8 -17 0 -14 7
-24 16 -23 22 1 5 -8 9 -21 7 -13 -2 -29 2 -37 8 -8 7 -19 9 -25 5 -5 -3 -10
-1 -10 5 0 6 -4 8 -10 5 -5 -3 -10 -1 -10 5 0 6 -5 8 -10 5 -6 -4 -17 -1 -25
5 -8 7 -15 9 -15 5 0 -4 -6 -3 -12 2 -7 6 -20 11 -28 12 -41 3 -62 8 -68 17
-4 5 -18 9 -32 9 -14 0 -27 3 -30 7 -3 4 -26 8 -52 9 -26 2 -45 6 -42 10 2 4
-12 7 -32 7 -20 0 -40 5 -44 12 -6 9 -9 9 -13 -1 -4 -9 -8 -10 -14 -4 -12 14
-29 17 -106 17 -37 0 -65 3 -62 8 6 10 -15 8 -34 -4 -9 -6 -12 -5 -8 1 4 6
-62 10 -178 11 -112 1 -186 -2 -190 -8 -3 -6 -12 -10 -18 -10 -7 0 -6 4 3 10
12 8 9 9 -12 8 -15 -1 -25 -5 -23 -9z"/>
<path d="M4950 1639 c0 -5 5 -7 10 -4 6 3 10 8 10 11 0 2 -4 4 -10 4 -5 0 -10
-5 -10 -11z"/>
</g>
</svg>
